<?xml version="1.0" encoding="UTF-8"?><svg id="a" xmlns="http://www.w3.org/2000/svg" viewBox="0 0 1064.15 572.35"><defs><style>.d{fill:#fff;}</style></defs><g id="b"><path class="d" d="M857.58,.26c28.57,28.58,56.68,56.7,84.81,84.85-12.81,12.53-26.02,25.44-39.83,38.94-14.14-13.93-29.11-28.68-44.76-44.09-9.15,9.39-17.95,18.61-26.96,27.61-53.31,53.26-106.69,106.45-160.01,159.7-55.18,55.11-168.59,168.28-168.59,168.28l-79.29,.03S712.85,145.23,857.58,.26Z"/><path class="d" d="M81.75,435.59C225.88,290.5,370.31,145.12,514.48,0c26.01,26.1,51.25,51.42,76.49,76.75-12.58,12.28-25.81,25.2-39.34,38.4-10.88-11.44-22.57-23.72-34.66-36.43-6.91,6.78-12.21,11.89-17.41,17.09-31.17,31.18-62.32,62.4-93.48,93.59-43.78,43.83-87.53,87.69-131.38,131.45-34.27,34.2-115.73,115.01-115.73,115.01,0,0-54.71-.28-73.2-.28h-4.02Z"/><path class="d" d="M253.43,435.47C397.65,290.73,542.25,145.61,686.73,.62c25.31,25.39,50.59,50.76,75.89,76.14-12.67,12.38-25.93,25.35-39.48,38.59-11.07-11.55-22.74-23.73-34.87-36.39-6.41,6.29-11.48,11.19-16.46,16.17-45.4,45.38-90.76,90.79-136.17,136.15-44.11,44.08-88.27,88.11-132.39,132.17-23.13,23.09-72.27,72.13-72.27,72.13,0,0-52.46-.02-77.1-.04-.63,0-1.26-.24-.45-.07Z"/><path class="d" d="M793.97,295.42v-55.5h55.42v55.5h-55.42Z"/><path class="d" d="M867.47,295.45v-55.6h55.06v55.6h-55.06Z"/><path class="d" d="M849.21,368.82h-55.32v-55.49h55.32v55.49Z"/><path class="d" d="M867.46,368.78v-55.33h55.19v55.33h-55.19Z"/></g><g id="c"><path class="d" d="M305.02,572.28c-23.51-.31-42.27-9.31-51.68-31.71-12.44-29.6-.45-67.69,36.63-75.85,21.65-4.76,41.55-1.13,57.16,15.62,14.34,15.39,16.9,34,11.67,53.86-5.81,22.08-26.56,38.54-53.77,38.07Zm-.16-22.99c18.88-.01,31.44-12.59,31.48-31.54,.04-18.88-12.61-31.77-31.24-31.84-18.97-.07-31.79,12.8-31.7,31.85,.09,19.03,12.57,31.55,31.46,31.53Z"/><path class="d" d="M164.77,534.39c6.89,11.63,13.76,23.22,20.99,35.42h-27.69c-6.04-10.46-12.15-21.04-18.34-31.77h-15.98v31.82h-23.75v-104.24c.89-.28,1.51-.64,2.12-.63,17.63,.3,35.34-.29,52.85,1.28,13.63,1.22,23.69,9.49,27.45,23.14,4.46,16.15,.93,34.56-16.07,43.28-.54,.28-.9,.93-1.59,1.69Zm-40.95-48.3v30.67c8.16,0,15.97,.53,23.67-.15,7.62-.68,12.58-7.5,12.45-15.46-.12-7.85-5.07-14.35-12.48-14.93-7.72-.6-15.53-.13-23.64-.13Z"/><path class="d" d="M438.38,569.89c-6.06-10.5-12.16-21.07-18.38-31.85h-15.87v31.8h-23.64v-103.91c.63-.42,.9-.76,1.16-.75,17.45,.19,34.95-.34,52.33,.86,13.07,.9,23.31,8.13,27.83,20.82,5.32,14.92,3.84,29.14-8.16,40.83-2.55,2.48-5.71,4.34-8.73,6.59,6.98,11.76,13.85,23.34,21.13,35.61h-27.68Zm-34.28-53.14c8.2,0,16.02,.54,23.73-.16,7.44-.68,12.28-7.29,12.33-15.08,.05-7.7-4.41-14.37-11.64-15.12-7.99-.82-16.13-.19-24.42-.19v30.54Z"/><path class="d" d="M699.34,533.91c7.16,12.07,14.09,23.76,21.35,36h-27.65c-6.21-10.7-12.34-21.28-18.48-31.87h-15.77v31.78h-23.75v-104.05c.57-.25,1.15-.75,1.73-.74,17.63,.28,35.41-.71,52.85,1.25,22.08,2.48,31.96,21.77,28.89,41.72-1.83,11.91-8.34,20.17-19.17,25.91Zm-40.86-17.23c8.58,0,16.55,.53,24.42-.17,6.29-.55,11.04-6.36,11.77-12.43,.91-7.61-1.86-13.73-8.23-16.42-9.04-3.82-18.48-1.23-27.96-1.95v30.97Z"/><path class="d" d="M951.93,504.2h-23.62c-9.51-18.49-24.63-20.58-36.87-17.29-16.31,4.39-23.19,16.29-22.02,35.24,.79,12.78,10.41,24.2,22.39,26.59,16.23,3.24,30.11-3.55,36.79-18.32h24.36c-6.04,28.92-32.04,45.83-64.51,41.11-26.04-3.79-44.67-25.25-43.91-55.63,.76-30.42,21.29-50.07,47.41-52.68,33.3-3.32,56.16,18.15,59.98,40.97Z"/><path class="d" d="M1034.7,465.16h26.02c-8.21,18.3-12.25,37.62-24.37,54.03,9.04,16.46,18.23,33.21,27.8,50.62h-27.85c-7.24-13.62-14.74-27.71-22.24-41.82h-17.43v41.7h-24.27v-104.33h24v40.19c9.3-.15,18.71,1.89,24.82-6.45,3.14-4.28,4.54-9.87,6.53-14.95,2.4-6.16,4.59-12.4,7.01-19Z"/><path class="d" d="M0,465.62c.91-.27,1.53-.62,2.14-.62,15.97,.23,32.01-.39,47.88,1.02,15.63,1.39,27.45,10.04,31.23,25.77,5.44,22.61-3.47,42.65-28.56,47.79-9.01,1.85-18.5,1.37-28.48,2v28.2H0v-104.17Zm24.23,54.21c7.15,0,13.64,.39,20.06-.1,7.94-.6,13.06-6.21,14.01-14.3,.99-8.4-2.59-15.84-10.19-17.6-7.7-1.78-15.84-1.71-23.87-2.46v34.46Z"/><path class="d" d="M771.18,465.19h23.73c13.8,34.78,27.57,69.47,41.53,104.62h-25.55c-2.49-6.14-4.84-11.94-7.16-17.66h-41.41c-2.29,5.71-4.62,11.49-7.09,17.64h-25.6c13.98-35.18,27.75-69.86,41.56-104.6Zm12.43,31.44c-.4,.01-.81,.03-1.21,.04-4.54,11.92-9.09,23.83-13.84,36.31h29.21c-4.88-12.54-9.52-24.44-14.15-36.35Z"/><path class="d" d="M560.19,487.7h-32.52v-22.36h89.63v22.06h-32.58v82.43h-24.53v-82.14Z"/><path class="d" d="M205.87,465.18h23.05v104.63h-23.05v-104.63Z"/><path class="d" d="M509.61,569.92h-22.98v-104.6h22.98v104.6Z"/></g></svg>