<?xml version="1.0" encoding="UTF-8"?><svg id="a" xmlns="http://www.w3.org/2000/svg" viewBox="0 0 860.65 435.59"><defs><style>.c{fill:#fff;}</style></defs><g id="b"><path class="c" d="M775.84,.26c28.57,28.58,56.68,56.7,84.81,84.85-12.81,12.53-26.02,25.44-39.83,38.94-14.14-13.93-29.11-28.68-44.76-44.09-9.15,9.39-17.95,18.61-26.96,27.61-53.31,53.26-106.69,106.45-160.01,159.7-55.18,55.11-168.59,168.28-168.59,168.28l-79.29,.03S631.1,145.23,775.84,.26Z"/><path class="c" d="M0,435.59C144.14,290.5,288.57,145.12,432.73,0c26.01,26.1,51.25,51.42,76.49,76.75-12.58,12.28-25.81,25.2-39.34,38.4-10.88-11.44-22.57-23.72-34.66-36.43-6.91,6.78-12.21,11.89-17.41,17.09-31.17,31.18-62.32,62.4-93.48,93.59-43.78,43.83-87.53,87.69-131.38,131.45-34.27,34.2-115.73,115.01-115.73,115.01,0,0-54.71-.28-73.2-.28H0Z"/><path class="c" d="M171.68,435.47C315.9,290.73,460.5,145.61,604.98,.62c25.31,25.39,50.59,50.76,75.89,76.14-12.67,12.38-25.93,25.35-39.48,38.59-11.07-11.55-22.74-23.73-34.87-36.39-6.41,6.29-11.48,11.19-16.46,16.17-45.4,45.38-90.76,90.79-136.17,136.15-44.11,44.08-88.27,88.11-132.39,132.17-23.13,23.09-72.27,72.13-72.27,72.13,0,0-52.46-.02-77.1-.04-.63,0-1.26-.24-.45-.07Z"/><path class="c" d="M712.22,295.42v-55.5h55.42v55.5h-55.42Z"/><path class="c" d="M785.72,295.45v-55.6h55.06v55.6h-55.06Z"/><path class="c" d="M767.46,368.82h-55.32v-55.49h55.32v55.49Z"/><path class="c" d="M785.71,368.78v-55.33h55.19v55.33h-55.19Z"/></g></svg>