<?xml version="1.0" encoding="UTF-8"?><svg id="a" xmlns="http://www.w3.org/2000/svg" viewBox="0 0 418.02 418.27"><path d="M341.51,336.1c-14.16,0-28.32,0-42.48,0-3.38,0-5.64-1.34-6.73-4.01-1.1-2.68-.46-5.32,1.85-7.63,12.03-12.03,24.13-23.99,36.06-36.11,9.94-10.09,15.44-22.32,16.31-36.46,1.08-17.47-4.78-32.41-17.1-44.81-5.82-5.86-11.53-11.85-17.61-17.42-9.88-9.05-21.67-13.92-35.06-14.62-17.55-.91-32.43,5.16-44.8,17.56-11.22,11.24-22.49,22.43-33.67,33.7-9.77,9.85-15.35,21.72-16.66,35.56-.61,6.48-5.35,11.16-12.37,11.93-14.14,1.55-26.09,7.48-36.08,17.57-11.17,11.29-22.49,22.43-33.65,33.73-2.41,2.43-4.5,5.2-6.58,7.93-1.55,2.03-3.4,3.11-5.99,3.11-17.01-.03-34.02-.01-51.03-.02-9.22,0-17.26-7.35-18.04-16.57-1.14-13.45-2.21-26.91-3.31-40.37-1.41-17.17-2.82-34.34-4.23-51.51-1.04-12.67-2.07-25.34-3.11-38.01-1.23-14.97-2.46-29.93-3.69-44.9-1.16-14.19-2.33-28.37-3.47-42.56-.91-11.28,7.43-20.31,18.78-20.32,21.68-.01,43.36-.02,65.05,0,28.27,.03,56.53,.09,84.8,.14,4.26,0,8.11,1.26,11.61,3.69,7.02,4.88,13.97,9.88,21.11,14.57,7.63,5.01,16.14,7.31,25.27,7.31,57.57,0,115.15,0,172.72,0,9.65,0,17.81,7.1,18.54,16.47,.26,3.35-.19,6.76-.45,10.13-.83,10.77-1.71,21.53-2.6,32.29-1.52,18.54-3.05,37.08-4.58,55.62-1.47,17.85-2.93,35.71-4.4,53.56-1.21,14.67-2.36,29.35-3.63,44.02-.8,9.23-8.87,16.43-18.15,16.43-14.21-.01-28.42,0-42.63,0Z"/><path d="M309.08,89c-27.39,0-54.77-.02-82.16,.02-4.55,0-8.57-1.32-12.28-3.9-7.21-5.03-14.37-10.16-21.77-14.91-7.24-4.65-15.38-6.65-23.97-6.66-30.04-.03-60.08,0-90.12-.02-17.21,0-34.41-.06-51.62-.1-3.32,0-5.22-1.74-5.22-5.04-.02-13.62-.09-27.24,.12-40.85C22.2,8.43,30.06,.68,39.17,.19c1.18-.06,2.36-.09,3.54-.09,29.2,0,58.41,.18,87.61-.1,11.53-.11,21.24,3.28,29.45,11.4,4.15,4.1,8.69,7.81,13.04,11.72,6.87,6.18,14.96,8.92,24.15,8.92,60.87-.03,121.74-.01,182.6-.02,9.77,0,18,7.55,18.27,17.36,.32,11.54,.18,23.1,.16,34.65,0,3.27-1.95,4.97-5.28,4.97-27.88,0-55.75,0-83.63,0Z"/><path d="M318.52,225.89c-6.13-7.44-13.2-14.17-20.26-20.77-14.42-13.47-36.96-12.79-50.9,1.19-6.35,6.37-12.73,12.72-19.09,19.09-5.7,5.7-11.65,11.18-17.04,17.16-12.5,13.86-12.35,35.01,.05,49.04,.28,.32,.52,.68,.74,.97-3.9,3.89-7.73,7.7-11.63,11.6-9.06-7.71-17.12-10.65-28.22-9.94-8.86,.57-16.57,3.97-22.92,10.23-6.72,6.63-13.36,13.34-20.04,20.01-5.53,5.53-11.31,10.83-16.52,16.64-13.18,14.71-12.31,36.87,1.71,50.84,5.15,5.14,10.3,10.28,15.44,15.44,14.44,14.51,37.89,14.52,52.38,.02,11.47-11.48,22.94-22.95,34.42-34.42,10.65-10.65,13.82-26.37,8.15-40.32-1.74-4.27-4.26-8.04-7.27-11.32,3.92-3.92,7.77-7.76,11.69-11.68,.29,.24,.66,.55,1.02,.87,14.2,12.69,36.81,12.07,50.26-1.39,11.71-11.72,23.43-23.43,35.14-35.15,12.73-12.74,14.34-34.21,2.9-48.09Zm-115.71,125.58c-.79,1.8-1.96,3.56-3.35,4.95-11.2,11.33-22.47,22.58-33.76,33.82-5.79,5.77-13.61,5.71-19.41-.06-5.01-5-10.02-10-15.02-15.01-5.62-5.63-5.6-13.54,.03-19.17,11.4-11.4,22.8-22.81,34.21-34.2,4.66-4.65,11.42-5.31,16.72-1.69,.43,.3,.83,.65,1.4,1.1-2.97,2.94-5.87,5.73-8.69,8.6-4.25,4.34-4.6,11.04-.9,15.76,4.49,5.74,12.75,6.02,18.28,.58,2.69-2.64,5.33-5.35,7.98-8.02,3.31,2.95,4.48,8.8,2.49,13.33Zm95.51-93.88c-11.37,11.5-22.81,22.92-34.29,34.3-4.81,4.76-11.54,5.34-16.84,1.68-.4-.28-.77-.59-1.32-1.02,2.75-2.72,5.44-5.37,8.12-8.03,2.08-2.06,3.51-4.47,3.87-7.43,.63-5.11-1.9-9.92-6.44-12.2-4.48-2.25-9.99-1.43-13.66,2.12-2.54,2.46-5.01,5-7.52,7.5-.38,.38-.77,.73-1.15,1.09-4.61-4.49-4.62-12.66,.18-17.52,11.64-11.78,23.35-23.49,35.13-35.13,5.21-5.15,13.22-4.92,18.4,.26,5.07,5.08,10.14,10.15,15.22,15.22,5.7,5.68,5.91,13.47,.29,19.16Z"/></svg>