<?xml version="1.0" encoding="UTF-8"?><svg id="a" xmlns="http://www.w3.org/2000/svg" viewBox="0 0 358.17 500"><defs><style>.b{fill:#b4b4b4;}</style></defs><path class="b" d="M179.1,285.78c45.95,0,91.89-.03,137.84,.05,4.05,0,8.18,.32,12.14,1.13,13.54,2.78,22.61,11.01,26.87,24.04,4.71,14.41,.45,26.95-9.87,37.36-29.09,29.36-58.39,58.51-87.61,87.74-17.3,17.31-34.59,34.63-51.91,51.92-16,15.98-38.93,15.98-54.93-.02-46.44-46.43-92.87-92.86-139.26-139.34-16.49-16.52-15.88-39.94,1.39-54.62,7.56-6.43,16.73-8.22,26.29-8.23,46.35-.07,92.71-.03,139.06-.03Z"/><path d="M179.08,214.78c-46.77,0-93.53,.03-140.3-.02-14.65-.01-26.48-5.51-34.02-18.55-8.43-14.58-5.49-32.15,7.46-45.14,30.93-30.99,61.9-61.94,92.86-92.91,15.28-15.29,30.5-30.66,45.88-45.85,10.75-10.62,23.47-14.77,38.42-10.88,6.5,1.69,12.05,5.1,16.71,9.75,46.87,46.78,93.74,93.56,140.45,140.51,20.06,20.16,13.22,51.66-13.15,60.87-4.63,1.62-9.86,2.11-14.82,2.13-46.49,.15-92.99,.09-139.49,.09Z"/></svg>